<?xml version="1.0" encoding="utf-8"?>
<!-- Generator: Adobe Illustrator 16.0.0, SVG Export Plug-In . SVG Version: 6.00 Build 0)  -->
<!DOCTYPE svg PUBLIC "-//W3C//DTD SVG 1.1//EN" "http://www.w3.org/Graphics/SVG/1.1/DTD/svg11.dtd">
<svg version="1.1" id="Layer_1" xmlns="http://www.w3.org/2000/svg" xmlns:xlink="http://www.w3.org/1999/xlink" x="0px" y="0px"
	 width="680.315px" height="680.317px" viewBox="0 0 680.315 680.317" enable-background="new 0 0 680.315 680.317"
	 xml:space="preserve">
<g>
	<g>
		<path fill="#EDEDED" d="M214.718,448.391c-0.651-2.493-1.358-4.8-2.114-6.907c-0.756-2.115-1.513-3.764-2.275-4.955
			c-5.954,0.861-12.917,2.003-20.872,3.411c-7.961,1.406-16.065,3.031-24.293,4.874c0.658-9.748,1.575-20.332,2.759-31.766
			c1.197-11.423,2.691-23.283,4.477-35.579c1.786-12.29,3.819-24.877,6.095-37.768c2.27-12.888,4.812-25.67,7.633-38.341
			c-1.737,0.108-4.062,0.487-6.988,1.138c-2.921,0.651-5.928,1.435-9.016,2.355c-3.088,0.921-6.014,1.894-8.78,2.924
			c-2.759,1.033-4.843,1.925-6.25,2.682c-2.059,13.321-3.795,26.56-5.202,39.721c-1.408,13.157-2.598,25.613-3.572,37.364
			c-0.974,11.749-1.761,22.422-2.35,32.007c-0.602,9.586-1.116,17.467-1.544,23.637c1.184,0.867,2.623,1.704,4.304,2.518
			c1.68,0.812,3.491,1.543,5.444,2.194c-3.36,0.867-6.604,1.762-9.748,2.685c-3.143,0.918-6.12,1.86-8.935,2.84l1.94,10.393
			c6.183-0.973,12.842-1.674,19.985-2.109c7.155-0.433,14.347-0.65,21.608-0.65c7.255,0,14.323,0.168,21.199,0.49
			c6.877,0.323,13.133,0.707,18.763,1.134c0-2.051-0.21-4.333-0.645-6.826C215.909,453.37,215.369,450.883,214.718,448.391z"/>
	</g>
	<g>
		<path fill="#EDEDED" d="M546.772,407.61c0.211-1.952-0.224-3.684-1.302-5.202c-1.08-1.512-2.455-2.921-4.144-4.223
			c-1.673-1.296-3.547-2.486-5.604-3.571c-2.06-1.086-3.981-2.194-5.767-3.331c-1.787-1.14-3.3-2.306-4.551-3.496
			c-1.24-1.189-1.923-2.542-2.023-4.061c0-0.861,0.076-1.756,0.236-2.68c0.174-0.917,0.409-1.978,0.731-3.168
			c0.337-1.189,0.758-2.623,1.303-4.304c0.547-1.681,1.24-3.763,2.109-6.255c-0.533-0.651-1.736-1.521-3.572-2.599
			c-1.837-1.079-3.931-2.196-6.251-3.336c-2.331-1.128-4.687-2.214-7.068-3.249c-2.38-1.029-4.438-1.756-6.176-2.188
			c0.323,1.624,0.186,3.571-0.409,5.847c-0.595,2.276-1.24,4.662-1.947,7.15c-0.693,2.491-1.266,4.978-1.698,7.47
			c-0.435,2.494-0.384,4.713,0.16,6.66c1.303,2.604,3.3,4.824,6.002,6.659c1.871,1.271,3.701,2.575,5.513,3.896
			c-0.174,0.492-0.355,1.003-0.552,1.548c-1.029,2.871-2.281,6.176-3.732,9.908c-1.464,3.746-3.063,7.696-4.798,11.869
			c-1.737,4.166-3.462,8.179-5.196,12.017c-1.737,3.845-3.412,7.341-5.036,10.479c-1.625,3.143-3.087,5.53-4.39,7.149
			c-0.546,0.65-1.166,1.221-1.859,1.705c-0.707,0.489-1.364,0.651-1.959,0.489c-0.595-0.166-1.055-0.837-1.378-2.026
			c-0.322-1.192-0.322-3.201,0-6.016c0.323-3.361,0.831-7.576,1.552-12.674c0.693-5.085,1.513-10.528,2.43-16.331
			c0.918-5.792,1.886-11.558,2.927-17.301c1.029-5.735,2.021-10.938,3-15.588c-1.513-0.328-3.385-0.49-5.604-0.49
			c-2.22,0-4.441,0.131-6.661,0.403s-4.276,0.595-6.176,0.979c-1.897,0.379-3.322,0.839-4.302,1.377
			c-0.211,0.434-0.46,1.216-0.732,2.355c-0.272,1.142-0.508,2.356-0.732,3.658c-1.947-2.814-3.844-4.873-5.679-6.176
			c-1.847-1.302-3.423-2.057-4.712-2.275c-2.06-0.322-4.341-0.401-6.834-0.241c-2.48,0.162-4.872,0.516-7.143,1.055
			c-2.27,0.545-4.253,1.215-5.928,2.034c-1.673,0.806-2.739,1.647-3.174,2.517c-0.856,1.625-1.762,4.254-2.666,7.874
			c-0.213,0.832-0.424,1.698-0.634,2.584c-2.442,2.201-5.208,4.375-8.309,6.519c-5.258,3.628-10.528,6.74-15.848,9.338
			c-0.758-0.867-2.158-2.082-4.218-3.658c-2.057-1.562-3.905-2.622-5.519-3.163c1.302-8.771,2.704-17.41,4.217-25.918
			c1.526-8.494,3.002-16.432,4.478-23.797c0.236-1.19,0.47-2.354,0.7-3.506h25.193c2.441,0,4.7-1.258,5.988-3.332l57.517-91.249
			c2.258,0.741,4.564,1.205,7.057,1.205c12.996,0,23.55-10.563,23.55-23.553c0-12.959-10.59-23.515-23.601-23.515
			c-12.995,0-23.548,10.556-23.548,23.55c0,5.075,1.661,9.782,4.428,13.654l-44.521,28.246l-11.706-25.342
			c-1.613-3.603-5.854-5.121-9.363-3.46l-29.49,13.548c-1.066,0.452-1.847,1.246-2.528,2.071l-30.42-45.763
			c8.755-3.457,14.979-11.945,14.979-21.891c0-13.003-10.565-23.553-23.562-23.553c-12.987,0-23.547,10.55-23.547,23.553
			c0,9.945,6.226,18.434,14.986,21.891l-30.425,45.763c-0.652-0.825-1.47-1.619-2.537-2.071l-29.446-13.548
			c-3.553-1.618-7.75-0.143-9.406,3.46l-11.937,25.85l-44.346-28.754c2.821-3.872,4.477-8.579,4.477-13.688
			c0-12.959-10.547-23.564-23.55-23.564c-12.99,0-23.556,10.605-23.556,23.564c0,12.99,10.566,23.553,23.556,23.553
			c2.487,0,4.787-0.464,7.057-1.205l57.467,91.249c1.339,2.074,3.603,3.332,5.995,3.332h121.383
			c-0.654,4.564-1.36,9.571-2.117,15.038c-1.08,7.801-2.183,16.061-3.325,24.778c-0.466,3.604-0.93,7.248-1.391,10.916
			c-0.364,1.025-0.736,2.065-1.126,3.134c-1.302,3.578-2.716,7.262-4.229,11.05c-1.513,3.794-2.977,7.365-4.377,10.727
			c-1.414,3.361-2.741,6.412-3.981,9.176c-1.252,2.767-2.257,4.851-3.002,6.252c-1.959,3.583-3.584,5.853-4.886,6.832
			c-1.288,0.968-2.27,0.942-2.915-0.087c-0.656-1.029-1.005-2.975-1.066-5.848c-0.048-2.87,0.188-6.305,0.746-10.31
			c0.32-3.361,0.743-7.18,1.288-11.459c0.547-4.278,1.192-8.779,1.947-13.487c0.757-4.712,1.574-9.529,2.443-14.453
			c0.868-4.936,1.785-9.673,2.765-14.218c-1.524-0.104-3.311-0.191-5.368-0.247c-2.06-0.057-4.142,0-6.251,0.168
			c-2.107,0.16-4.229,0.482-6.337,0.966c-2.109,0.496-3.979,1.116-5.609,1.873c-0.868,6.288-1.947,12.698-3.249,19.252
			c-1.295,6.555-2.734,12.73-4.303,18.521c-1.568,5.792-3.168,11.025-4.787,15.675c-1.63,4.663-3.063,8.21-4.31,10.64
			c-1.246,2.444-2.306,3.553-3.168,3.337c-0.868-0.217-1.296-2.282-1.296-6.176c0-2.381,0.243-5.904,0.727-10.56
			c0.489-4.657,1.165-9.933,2.033-15.842c0.861-5.903,1.866-12.13,3.007-18.683c1.135-6.554,2.356-12.859,3.653-18.925
			c-1.514-0.104-3.305-0.166-5.358-0.166c-2.058,0-4.11,0.111-6.15,0.328c-2.053,0.216-4.043,0.539-5.971,0.974
			c-1.935,0.433-3.553,1.029-4.843,1.785c-0.316,1.197-0.75,3.224-1.29,6.089c-0.497,2.681-1.039,5.864-1.631,9.521
			c-1.242,1.557-2.597,3.07-4.079,4.535c-4.285,4.224-8.799,7.528-13.568,9.914c0.112-0.433,0.081-1.979-0.074-4.638
			c-0.167-2.646-0.385-5.518-0.657-8.606c-0.267-3.087-0.564-5.982-0.887-8.692c-0.329-2.703-0.658-4.327-0.979-4.874
			c-0.217-0.651-1.353-1.353-3.411-2.107c-2.058-0.758-4.409-1.384-7.069-1.874c-2.653-0.483-5.332-0.73-8.042-0.73
			c-2.709,0-4.867,0.433-6.499,1.302c-2.38-0.435-5.14-0.62-8.284-0.571c-3.137,0.063-6.281,0.732-9.419,2.034
			c-0.762,0.974-1.841,3.162-3.248,6.579c-1.414,3.416-2.847,7.473-4.303,12.184c-1.47,4.714-2.872,9.829-4.235,15.354
			c-1.345,5.523-2.35,10.838-3.001,15.922c-0.21,4.762,0.515,9.041,2.194,12.836c1.681,3.795,3.931,7.044,6.74,9.746
			c2.815,2.704,6.095,4.825,9.829,6.338c3.738,1.513,7.607,2.324,11.62,2.431c1.296,0,3.168-0.323,5.605-0.968
			c2.437-0.657,4.898-1.574,7.385-2.765c2.499-1.192,4.8-2.654,6.907-4.391c2.115-1.724,3.546-3.572,4.304-5.52
			c1.519-4.229,2.684-8.99,3.491-14.297c0.818-5.309,1.438-11.26,1.872-17.87c1.842-0.651,4.148-1.922,6.908-3.819
			c2.759-1.897,5.518-4.086,8.283-6.579c0.38-0.343,0.748-0.696,1.121-1.046c-0.192,1.349-0.383,2.719-0.575,4.135
			c-0.644,4.768-1.203,9.585-1.692,14.459c-0.484,4.874-0.832,9.691-1.048,14.459c-0.217,4.77-0.217,9.097,0.006,12.997
			c0.323,0.861,1.153,1.841,2.493,2.921c1.345,1.091,2.926,2.113,4.749,3.087c1.829,0.979,3.659,1.817,5.481,2.517
			c1.829,0.707,3.392,1.055,4.676,1.055c2.158,0,4.142-0.893,5.989-2.679c1.842-1.785,3.547-4.08,5.115-6.9
			c1.575-2.82,3.008-5.935,4.31-9.344c1.295-3.412,2.486-6.74,3.565-9.989c-0.105,0.539-0.211,1.568-0.323,3.087
			c-0.111,1.52-0.186,3.168-0.242,4.955c-0.056,1.784-0.112,3.546-0.161,5.283c-0.056,1.729-0.031,2.975,0.08,3.731
			c0.211,1.303,1.111,2.63,2.68,3.981c1.574,1.351,3.435,2.63,5.604,3.819c2.167,1.19,4.387,2.169,6.67,2.927
			c2.268,0.755,4.215,1.128,5.84,1.128c1.946,0,4.031-1.377,6.251-4.142c2.22-2.753,4.438-6.338,6.672-10.721
			c2.22-4.384,4.4-9.345,6.572-14.863c0.938-2.385,1.845-4.772,2.741-7.16c-0.688,6.114-1.33,12.135-1.923,18.05
			c-0.336,5.306-0.521,10.856-0.571,16.647c-0.063,5.791,0.101,11.372,0.484,16.734c0.385,5.357,1.14,10.23,2.269,14.622
			c1.142,4.383,2.791,7.825,4.96,10.317c1.947,2.374,4.305,4.142,7.068,5.277c2.767,1.134,5.469,1.841,8.123,2.113
			c2.654,0.267,5.06,0.162,7.23-0.322c2.158-0.497,3.62-1.171,4.378-2.034c1.736-3.472,3.249-7.639,4.551-12.513
			c1.302-4.873,2.38-10.132,3.249-15.761c0.867-5.631,1.463-11.423,1.785-17.374c0.336-5.96,0.385-11.701,0.174-17.226
			c-0.222-5.524-0.682-10.64-1.389-15.352c-0.707-4.714-1.698-8.631-3-11.782c5.629-2.814,10.851-6.2,15.674-10.156
			c1.034-0.847,2.043-1.706,3.043-2.569c-0.014,0.073-0.027,0.141-0.041,0.214c-0.855,4.661-1.649,9.535-2.356,14.633
			c-0.695,5.085-1.24,9.934-1.625,14.535c-0.372,4.605-0.508,8.692-0.397,12.263c0.101,3.571,0.535,6.127,1.29,7.64
			c0.657,1.297,1.923,2.543,3.819,3.732c1.896,1.191,3.981,2.22,6.263,3.089c2.27,0.867,4.464,1.513,6.574,1.947
			c2.107,0.433,3.707,0.545,4.798,0.32c1.19-0.21,2.405-0.991,3.646-2.349c1.254-1.353,2.469-3.056,3.658-5.115
			c1.19-2.06,2.357-4.36,3.497-6.908c1.142-2.542,2.196-5.115,3.162-7.713c-0.223,2.059-0.371,3.956-0.483,5.679
			c-0.111,1.737-0.111,3.201,0,4.391c0,1.414,0.831,2.84,2.518,4.305c1.675,1.462,3.709,2.764,6.089,3.905
			c2.382,1.129,4.874,2.052,7.478,2.753c2.593,0.707,4.762,1.053,6.499,1.053c1.835,0,3.844-1.456,6.002-4.377
			c2.171-2.927,4.416-6.689,6.745-11.297c2.332-4.602,4.602-9.717,6.821-15.352c2.22-5.631,4.304-11.125,6.263-16.493
			c1.947-5.359,3.622-10.281,5.036-14.784c0.368-1.181,0.714-2.279,1.039-3.308c1.818,1.537,3.418,3.185,4.801,4.94
			c1.849,2.323,2.542,5.275,2.121,8.847l-0.335,2.927c-0.645,4.874-1.24,9.81-1.786,14.788c-0.545,4.979-0.918,9.618-1.129,13.889
			c-0.224,4.285-0.297,8.042-0.249,11.291c0.051,3.25,0.3,5.581,0.732,6.983c1.402,0.979,3.224,1.945,5.445,2.927
			c2.22,0.979,4.513,1.811,6.906,2.518c2.368,0.707,4.738,1.215,7.057,1.543c2.332,0.328,4.366,0.379,6.101,0.168
			c-1.847-4.229-2.814-10.045-2.927-17.467c-0.11-7.422,0.274-15.354,1.13-23.805L546.772,407.61z M503.554,218.086
			c8.508,0,15.354,6.92,15.354,15.343c0,8.443-6.846,15.359-15.354,15.359c-8.418,0-15.34-6.83-15.34-15.359
			C488.214,225.006,495.136,218.086,503.554,218.086z M192.092,248.788c-8.495,0-15.353-6.917-15.353-15.359
			c0-8.498,6.858-15.343,15.353-15.343c8.439,0,15.347,6.845,15.347,15.343C207.439,241.872,200.531,248.788,192.092,248.788z
			 M395.441,269.172l26.948-12.391l11.161,24.148l-22.371,14.227L394.14,269.5C394.574,269.392,395.009,269.392,395.441,269.172z
			 M332.473,194.497c0-8.433,6.932-15.35,15.35-15.35c8.521,0,15.354,6.917,15.354,15.35c0,8.498-6.833,15.35-15.354,15.35
			C339.405,209.846,332.473,202.994,332.473,194.497z M273.884,257.509l26.353,12.119c0.371,0.22,0.836,0.22,1.277,0.326
			l-17.306,25.928l-21.609-14.025L273.884,257.509z M259.561,338.643l-42.027-70.494l61.639,42.275
			c3.541,2.378,8.247,1.385,10.553-2.365l58.071-92.218l57.454,91.306c2.345,3.655,6.995,4.715,10.505,2.322l62.724-41.996
			l-42.411,71.169h-25.835c0.331-1.592,0.655-3.136,0.972-4.63c1.239-5.844,2.244-10.556,3.013-14.131
			c-2.828-0.431-6.672-0.351-11.546,0.241c-4.874,0.599-9.686,1.978-14.459,4.146c-0.211,0.434-0.62,2.465-1.215,6.091
			c-0.376,2.296-0.808,5.058-1.293,8.282H259.561z M260.28,431.084c-0.484,3.089-0.999,5.822-1.538,8.204
			c-0.651,2.604-1.569,4.768-2.766,6.497c-1.19,1.736-2.492,3.038-3.894,3.9c-1.414,0.869-2.821,1.357-4.229,1.464
			s-2.598-0.106-3.572-0.651c-1.842-1.302-2.871-3.571-3.088-6.82c-0.216-3.249,0.025-6.987,0.738-11.21
			c0.694-4.223,1.699-8.662,3.001-13.319c1.302-4.663,2.598-9.053,3.9-13.169c0.651,3.794,2.027,7.018,4.142,9.672
			s4.892,4.414,8.364,5.283C261.124,424.618,260.776,427.998,260.28,431.084z M258.5,410.86c-0.924-1.086-1.656-2.276-2.195-3.578
			c-0.54-1.302-0.955-2.598-1.216-3.895c-0.278-1.302-0.409-2.548-0.409-3.739c0-2.276,0.242-4.198,0.731-5.767
			c0.484-1.568,1.055-2.492,1.706-2.759c0.644-0.272,1.302,0.211,1.946,1.463c0.652,1.24,1.247,3.546,1.786,6.901
			c0.217,2.164,0.41,4.521,0.571,7.063c0.162,2.549,0.249,4.799,0.249,6.746C260.472,412.75,259.412,411.943,258.5,410.86z
			 M401.295,440.751c-0.383,4.116-0.916,8.532-1.623,13.244c-0.707,4.713-1.6,9.604-2.679,14.696
			c-1.092,5.097-2.332,10.13-3.746,15.11c-0.966,3.466-1.886,6.069-2.753,7.793c-0.867,1.736-1.6,2.766-2.194,3.095
			c-0.595,0.322-1.055-0.031-1.389-1.061c-0.323-1.03-0.373-2.518-0.148-4.465c0.322-3.571,0.78-7.744,1.375-12.512
			c0.597-4.762,1.278-9.989,2.034-15.676c0.757-5.686,1.588-11.749,2.517-18.191c0.906-6.448,1.86-13.022,2.84-19.742
			c2.158-0.323,4.105-0.868,5.842-1.625c0.224,1.189,0.385,2.517,0.496,3.981c0.099,1.462,0.16,2.951,0.16,4.464
			C401.917,433.007,401.668,436.634,401.295,440.751z M466.687,402.897c-0.979,6.282-2.22,12.135-3.732,17.548
			c-1.526,5.413-3.089,10.149-4.725,14.218c-1.625,4.055-3.162,7.335-4.627,9.829c-1.462,2.485-2.565,3.948-3.322,4.383
			c-1.302,0.757-2.146-0.138-2.518-2.68c-0.384-2.542-0.435-5.982-0.174-10.317c0.272-4.327,0.817-9.15,1.637-14.459
			c0.808-5.309,1.748-10.368,2.84-15.191c1.079-4.817,2.208-8.959,3.411-12.425c1.189-3.468,2.318-5.469,3.409-6.016
			c0.646-0.322,1.465-0.104,2.431,0.651c0.979,0.763,1.898,1.866,2.766,3.33c0.868,1.462,1.55,3.168,2.034,5.121
			C466.6,398.836,466.785,400.839,466.687,402.897z"/>
	</g>
</g>
</svg>
