<?xml version="1.0" encoding="utf-8"?>
<!-- Generator: Adobe Illustrator 16.0.0, SVG Export Plug-In . SVG Version: 6.00 Build 0)  -->
<!DOCTYPE svg PUBLIC "-//W3C//DTD SVG 1.1//EN" "http://www.w3.org/Graphics/SVG/1.1/DTD/svg11.dtd">
<svg version="1.1" id="Layer_1" xmlns="http://www.w3.org/2000/svg" xmlns:xlink="http://www.w3.org/1999/xlink" x="0px" y="0px"
	 width="680.315px" height="680.317px" viewBox="0 0 680.315 680.317" enable-background="new 0 0 680.315 680.317"
	 xml:space="preserve">
<rect width="680.315" height="680.317"/>
<circle stroke="#DEBB4D" stroke-width="8" stroke-miterlimit="10" cx="340.158" cy="340.158" r="297.035"/>
<path fill="#3C3C3B" stroke="#DEBB4D" stroke-width="8" stroke-miterlimit="10" d="M70.189,340.159
	c0-149.1,120.867-269.974,269.964-269.974c149.102,0,269.974,120.874,269.974,269.974c0,149.101-120.872,269.974-269.974,269.974
	C191.056,610.132,70.189,489.259,70.189,340.159z"/>
<path fill="#DEBB4D" d="M503.554,209.883c-12.995,0-23.548,10.556-23.548,23.55c0,5.075,1.661,9.782,4.428,13.654l-44.521,28.246
	l-11.706-25.342c-1.613-3.603-5.854-5.121-9.363-3.46l-29.49,13.548c-1.066,0.452-1.847,1.246-2.528,2.071l-30.42-45.763
	c8.755-3.457,14.979-11.945,14.979-21.891c0-13.003-10.565-23.553-23.562-23.553c-12.987,0-23.547,10.55-23.547,23.553
	c0,9.945,6.226,18.434,14.986,21.891l-30.425,45.763c-0.652-0.825-1.47-1.619-2.537-2.071l-29.446-13.548
	c-3.553-1.618-7.75-0.143-9.406,3.46l-11.937,25.85l-44.346-28.754c2.821-3.872,4.477-8.579,4.477-13.688
	c0-12.959-10.547-23.564-23.55-23.564c-12.99,0-23.556,10.605-23.556,23.564c0,12.99,10.566,23.553,23.556,23.553
	c2.487,0,4.787-0.464,7.057-1.205l57.467,91.249c1.339,2.074,3.603,3.332,5.995,3.332h170.432c2.441,0,4.7-1.258,5.988-3.332
	l57.517-91.249c2.258,0.741,4.564,1.205,7.057,1.205c12.996,0,23.55-10.563,23.55-23.553
	C527.154,220.439,516.564,209.883,503.554,209.883L503.554,209.883z M395.441,269.172l26.948-12.391l11.161,24.148l-22.371,14.227
	L394.14,269.5C394.574,269.392,395.009,269.392,395.441,269.172L395.441,269.172z M347.822,179.146
	c8.521,0,15.354,6.917,15.354,15.35c0,8.498-6.833,15.35-15.354,15.35c-8.417,0-15.35-6.852-15.35-15.35
	C332.473,186.063,339.405,179.146,347.822,179.146L347.822,179.146z M273.884,257.509l26.353,12.119
	c0.371,0.22,0.836,0.22,1.277,0.326l-17.306,25.928l-21.609-14.025L273.884,257.509z M176.74,233.429
	c0-8.498,6.858-15.343,15.353-15.343c8.439,0,15.347,6.845,15.347,15.343c0,8.443-6.908,15.359-15.347,15.359
	C183.598,248.788,176.74,241.872,176.74,233.429L176.74,233.429z M436.068,338.643H259.561l-42.027-70.494l61.639,42.275
	c3.541,2.378,8.247,1.385,10.553-2.365l58.071-92.218l57.454,91.306c2.345,3.655,6.995,4.715,10.505,2.322l62.724-41.996
	L436.068,338.643z M503.554,248.788c-8.418,0-15.34-6.83-15.34-15.359c0-8.422,6.922-15.343,15.34-15.343
	c8.508,0,15.354,6.92,15.354,15.343C518.907,241.872,512.062,248.788,503.554,248.788L503.554,248.788z M440.694,372.538"/>
<g>
	<g>
		<path fill="#DEBB4D" d="M133.492,453.425c2.815-0.979,5.792-1.922,8.935-2.84c3.144-0.923,6.387-1.817,9.748-2.685
			c-1.953-0.651-3.764-1.383-5.444-2.194c-1.681-0.813-3.12-1.65-4.304-2.518c0.429-6.17,0.943-14.051,1.544-23.637
			c0.589-9.585,1.376-20.258,2.35-32.007c0.974-11.751,2.164-24.207,3.572-37.364c1.407-13.161,3.143-26.399,5.202-39.721
			c1.407-0.757,3.491-1.649,6.25-2.682c2.766-1.03,5.692-2.002,8.78-2.924c3.088-0.92,6.095-1.705,9.016-2.355
			c2.927-0.651,5.251-1.03,6.988-1.138c-2.821,12.67-5.364,25.453-7.633,38.341c-2.276,12.891-4.309,25.478-6.095,37.768
			c-1.786,12.296-3.28,24.156-4.477,35.579c-1.184,11.434-2.102,22.018-2.759,31.766c8.228-1.843,16.332-3.468,24.293-4.874
			c7.955-1.408,14.918-2.55,20.872-3.411c0.762,1.191,1.519,2.84,2.275,4.955c0.756,2.107,1.463,4.414,2.114,6.907
			c0.651,2.492,1.191,4.979,1.625,7.465c0.435,2.493,0.645,4.775,0.645,6.826c-5.63-0.427-11.886-0.811-18.763-1.134
			c-6.876-0.322-13.944-0.49-21.199-0.49c-7.262,0-14.454,0.218-21.608,0.65c-7.144,0.436-13.803,1.137-19.985,2.109
			L133.492,453.425z"/>
	</g>
	<g>
		<path fill="#DEBB4D" d="M277.096,450.336c-0.757,1.947-2.188,3.796-4.304,5.52c-2.107,1.736-4.408,3.198-6.907,4.391
			c-2.486,1.19-4.948,2.107-7.385,2.765c-2.437,0.645-4.309,0.968-5.605,0.968c-4.012-0.106-7.882-0.918-11.62-2.431
			c-3.733-1.513-7.013-3.634-9.829-6.338c-2.809-2.702-5.06-5.951-6.74-9.746c-1.68-3.795-2.405-8.074-2.194-12.836
			c0.651-5.084,1.656-10.398,3.001-15.922c1.364-5.524,2.765-10.64,4.235-15.354c1.457-4.711,2.889-8.768,4.303-12.184
			c1.407-3.417,2.486-5.605,3.248-6.579c3.138-1.302,6.282-1.971,9.419-2.034c3.144-0.049,5.904,0.137,8.284,0.571
			c1.631-0.869,3.789-1.302,6.499-1.302c2.71,0,5.389,0.247,8.042,0.73c2.66,0.49,5.011,1.116,7.069,1.874
			c2.058,0.755,3.193,1.456,3.411,2.107c0.321,0.547,0.651,2.171,0.979,4.874c0.322,2.71,0.62,5.605,0.887,8.692
			c0.272,3.089,0.489,5.96,0.657,8.606c0.155,2.659,0.186,4.205,0.074,4.638c4.769-2.386,9.283-5.69,13.568-9.914
			c4.271-4.223,7.551-8.824,9.827-13.808l4.391,4.061c-0.974,2.598-2.654,5.309-5.035,8.129c-2.387,2.814-4.96,5.463-7.72,7.955
			c-2.765,2.493-5.524,4.682-8.283,6.579c-2.759,1.897-5.066,3.168-6.908,3.819c-0.434,6.61-1.054,12.562-1.872,17.87
			C279.78,441.346,278.615,446.108,277.096,450.336z M261.34,420.935c-3.472-0.869-6.25-2.629-8.364-5.283s-3.491-5.878-4.142-9.672
			c-1.302,4.116-2.598,8.506-3.9,13.169c-1.302,4.657-2.307,9.097-3.001,13.319c-0.713,4.223-0.954,7.961-0.738,11.21
			c0.217,3.249,1.246,5.519,3.088,6.82c0.974,0.545,2.165,0.758,3.572,0.651s2.814-0.595,4.229-1.464
			c1.401-0.862,2.704-2.164,3.894-3.9c1.197-1.729,2.115-3.893,2.766-6.497c0.539-2.382,1.054-5.115,1.538-8.204
			C260.776,427.998,261.124,424.618,261.34,420.935z M254.681,399.648c0,1.191,0.13,2.438,0.409,3.739
			c0.261,1.297,0.676,2.593,1.216,3.895c0.539,1.302,1.271,2.492,2.195,3.578c0.912,1.083,1.971,1.891,3.169,2.436
			c0-1.947-0.087-4.197-0.249-6.746c-0.161-2.542-0.354-4.898-0.571-7.063c-0.539-3.355-1.134-5.661-1.786-6.901
			c-0.645-1.252-1.302-1.735-1.946-1.463c-0.651,0.267-1.222,1.19-1.706,2.759C254.923,395.45,254.681,397.372,254.681,399.648z"/>
	</g>
	<g>
		<path fill="#DEBB4D" d="M351.989,462.354c-1.625,0-3.572-0.373-5.84-1.128c-2.283-0.758-4.503-1.736-6.67-2.927
			c-2.17-1.189-4.03-2.469-5.604-3.819c-1.569-1.352-2.468-2.679-2.68-3.981c-0.111-0.757-0.136-2.003-0.08-3.731
			c0.049-1.737,0.105-3.499,0.161-5.283c0.056-1.787,0.13-3.436,0.242-4.955c0.112-1.519,0.217-2.548,0.323-3.087
			c-1.079,3.249-2.27,6.577-3.565,9.989c-1.302,3.409-2.734,6.523-4.31,9.344c-1.568,2.82-3.273,5.115-5.115,6.9
			c-1.848,1.786-3.832,2.679-5.989,2.679c-1.284,0-2.847-0.348-4.676-1.055c-1.823-0.699-3.652-1.538-5.481-2.517
			c-1.823-0.974-3.404-1.996-4.749-3.087c-1.34-1.08-2.17-2.06-2.493-2.921c-0.223-3.9-0.223-8.228-0.006-12.997
			c0.216-4.768,0.564-9.585,1.048-14.459c0.49-4.874,1.048-9.691,1.692-14.459c0.645-4.77,1.291-9.153,1.941-13.165
			c0.644-4.005,1.228-7.439,1.761-10.317c0.539-2.865,0.974-4.892,1.29-6.089c1.29-0.756,2.908-1.353,4.843-1.785
			c1.928-0.435,3.918-0.758,5.971-0.974c2.04-0.217,4.092-0.328,6.15-0.328c2.053,0,3.844,0.062,5.358,0.166
			c-1.296,6.065-2.518,12.371-3.653,18.925c-1.141,6.553-2.146,12.779-3.007,18.683c-0.868,5.909-1.544,11.185-2.033,15.842
			c-0.484,4.655-0.727,8.179-0.727,10.56c0,3.894,0.428,5.959,1.296,6.176c0.862,0.216,1.922-0.893,3.168-3.337
			c1.247-2.43,2.68-5.977,4.31-10.64c1.619-4.649,3.218-9.883,4.787-15.675c1.569-5.791,3.008-11.967,4.303-18.521
			c1.302-6.554,2.381-12.964,3.249-19.252c1.63-0.757,3.5-1.377,5.609-1.873c2.108-0.483,4.229-0.806,6.337-0.966
			c2.109-0.168,4.191-0.225,6.251-0.168c2.058,0.056,3.844,0.143,5.368,0.247c-0.979,4.545-1.896,9.282-2.765,14.218
			c-0.869,4.924-1.687,9.741-2.443,14.453c-0.755,4.708-1.4,9.209-1.947,13.487c-0.545,4.279-0.968,8.098-1.288,11.459
			c-0.559,4.005-0.794,7.439-0.746,10.31c0.062,2.873,0.41,4.818,1.066,5.848c0.646,1.029,1.627,1.055,2.915,0.087
			c1.302-0.979,2.927-3.249,4.886-6.832c0.745-1.401,1.75-3.485,3.002-6.252c1.24-2.764,2.567-5.814,3.981-9.176
			c1.4-3.361,2.864-6.933,4.377-10.727c1.513-3.788,2.927-7.472,4.229-11.05c1.302-3.571,2.455-6.9,3.496-9.989
			c1.03-3.081,1.811-5.66,2.346-7.713l4.886,1.296c-0.979,3.361-2.259,7.528-3.819,12.512c-1.576,4.98-3.336,10.232-5.283,15.764
			c-1.947,5.517-4.007,11.049-6.176,16.566c-2.172,5.519-4.353,10.479-6.572,14.863c-2.233,4.383-4.452,7.968-6.672,10.721
			C356.021,460.977,353.936,462.354,351.989,462.354z"/>
	</g>
	<g>
		<path fill="#DEBB4D" d="M372.303,443.518c0.868-8.67,1.835-17.549,2.913-26.651c1.092-9.096,2.208-18.006,3.336-26.724
			c1.143-8.718,2.245-16.978,3.325-24.778c1.078-7.793,2.058-14.67,2.925-20.628c0.869-5.955,1.602-10.745,2.196-14.376
			c0.595-3.626,1.004-5.658,1.215-6.091c4.773-2.168,9.585-3.547,14.459-4.146c4.874-0.592,8.718-0.672,11.546-0.241
			c-0.769,3.575-1.773,8.287-3.013,14.131c-1.24,5.85-2.593,12.458-4.056,19.82c-1.476,7.365-2.951,15.303-4.478,23.797
			c-1.513,8.508-2.915,17.146-4.217,25.918c1.613,0.541,3.462,1.602,5.519,3.163c2.06,1.576,3.46,2.791,4.218,3.658
			c5.319-2.598,10.59-5.71,15.848-9.338c5.247-3.628,9.563-7.341,12.91-11.129l3.732,4.383c-4.105,4.335-8.569,8.477-13.394,12.426
			c-4.823,3.956-10.045,7.342-15.674,10.156c1.302,3.151,2.293,7.068,3,11.782c0.707,4.712,1.167,9.827,1.389,15.352
			c0.211,5.524,0.162,11.266-0.174,17.226c-0.322,5.951-0.918,11.743-1.785,17.374c-0.869,5.629-1.947,10.888-3.249,15.761
			c-1.302,4.874-2.814,9.041-4.551,12.513c-0.758,0.863-2.22,1.537-4.378,2.034c-2.171,0.484-4.576,0.589-7.23,0.322
			c-2.654-0.272-5.356-0.979-8.123-2.113c-2.764-1.136-5.121-2.903-7.068-5.277c-2.169-2.492-3.818-5.935-4.96-10.317
			c-1.129-4.392-1.884-9.265-2.269-14.622c-0.384-5.362-0.547-10.943-0.484-16.734C371.781,454.375,371.967,448.824,372.303,443.518
			z M401.37,421.418c-1.736,0.757-3.684,1.302-5.842,1.625c-0.979,6.72-1.934,13.294-2.84,19.742
			c-0.929,6.442-1.76,12.506-2.517,18.191c-0.756,5.687-1.438,10.914-2.034,15.676c-0.595,4.768-1.053,8.94-1.375,12.512
			c-0.225,1.947-0.175,3.435,0.148,4.465c0.334,1.029,0.794,1.383,1.389,1.061c0.595-0.329,1.327-1.358,2.194-3.095
			c0.867-1.724,1.787-4.327,2.753-7.793c1.414-4.98,2.654-10.014,3.746-15.11c1.079-5.092,1.972-9.983,2.679-14.696
			c0.707-4.712,1.24-9.128,1.623-13.244c0.373-4.117,0.622-7.744,0.731-10.888c0-1.513-0.062-3.002-0.16-4.464
			C401.755,423.935,401.594,422.608,401.37,421.418z"/>
	</g>
	<g>
		<path fill="#DEBB4D" d="M518.832,390.062c-0.755,2.275-1.847,5.662-3.247,10.149c-1.414,4.503-3.089,9.425-5.036,14.784
			c-1.959,5.368-4.043,10.862-6.263,16.493c-2.22,5.635-4.489,10.75-6.821,15.352c-2.329,4.607-4.574,8.37-6.745,11.297
			c-2.158,2.921-4.167,4.377-6.002,4.377c-1.737,0-3.906-0.346-6.499-1.053c-2.604-0.701-5.096-1.624-7.478-2.753
			c-2.38-1.142-4.414-2.443-6.089-3.905c-1.687-1.465-2.518-2.891-2.518-4.305c-0.111-1.189-0.111-2.653,0-4.391
			c0.112-1.723,0.261-3.62,0.483-5.679c-0.966,2.598-2.021,5.171-3.162,7.713c-1.14,2.548-2.307,4.849-3.497,6.908
			c-1.189,2.06-2.404,3.763-3.658,5.115c-1.24,1.357-2.455,2.139-3.646,2.349c-1.091,0.225-2.69,0.112-4.798-0.32
			c-2.11-0.435-4.305-1.08-6.574-1.947c-2.281-0.869-4.366-1.897-6.263-3.089c-1.896-1.189-3.162-2.436-3.819-3.732
			c-0.755-1.513-1.189-4.068-1.29-7.64c-0.11-3.57,0.025-7.657,0.397-12.263c0.385-4.602,0.93-9.45,1.625-14.535
			c0.707-5.098,1.501-9.972,2.356-14.633c0.867-4.651,1.76-8.793,2.691-12.427c0.904-3.62,1.81-6.249,2.666-7.874
			c0.435-0.869,1.501-1.711,3.174-2.517c1.675-0.819,3.658-1.489,5.928-2.034c2.271-0.539,4.662-0.893,7.143-1.055
			c2.493-0.16,4.774-0.081,6.834,0.241c1.289,0.219,2.865,0.974,4.712,2.275c1.835,1.303,3.731,3.361,5.679,6.176
			c0.225-1.302,0.46-2.517,0.732-3.658c0.272-1.14,0.521-1.922,0.732-2.355c0.979-0.538,2.404-0.998,4.302-1.377
			c1.899-0.385,3.956-0.707,6.176-0.979s4.441-0.403,6.661-0.403c2.219,0,4.091,0.162,5.604,0.49c-0.979,4.649-1.971,9.853-3,15.588
			c-1.041,5.743-2.009,11.509-2.927,17.301c-0.917,5.803-1.736,11.246-2.43,16.331c-0.721,5.098-1.229,9.313-1.552,12.674
			c-0.322,2.814-0.322,4.823,0,6.016c0.323,1.189,0.783,1.86,1.378,2.026c0.595,0.162,1.252,0,1.959-0.489
			c0.693-0.484,1.313-1.055,1.859-1.705c1.303-1.619,2.765-4.007,4.39-7.149c1.624-3.138,3.299-6.634,5.036-10.479
			c1.734-3.838,3.459-7.851,5.196-12.017c1.734-4.173,3.334-8.123,4.798-11.869c1.451-3.732,2.703-7.037,3.732-9.908
			c1.029-2.864,1.762-5.009,2.194-6.411L518.832,390.062z M466.687,402.897c0.099-2.058-0.087-4.061-0.57-6.008
			c-0.484-1.953-1.166-3.659-2.034-5.121c-0.867-1.464-1.786-2.567-2.766-3.33c-0.966-0.756-1.785-0.974-2.431-0.651
			c-1.091,0.547-2.22,2.548-3.409,6.016c-1.203,3.466-2.332,7.607-3.411,12.425c-1.092,4.823-2.032,9.883-2.84,15.191
			c-0.819,5.309-1.364,10.132-1.637,14.459c-0.261,4.335-0.21,7.775,0.174,10.317c0.371,2.542,1.216,3.437,2.518,2.68
			c0.757-0.435,1.86-1.897,3.322-4.383c1.465-2.494,3.002-5.774,4.627-9.829c1.636-4.068,3.198-8.805,4.725-14.218
			C464.467,415.032,465.707,409.179,466.687,402.897z"/>
	</g>
	<g>
		<path fill="#DEBB4D" d="M544.491,426.453c-0.855,8.451-1.24,16.383-1.13,23.805c0.112,7.422,1.08,13.238,2.927,17.467
			c-1.734,0.211-3.769,0.16-6.101-0.168c-2.318-0.328-4.688-0.836-7.057-1.543c-2.394-0.707-4.687-1.538-6.906-2.518
			c-2.222-0.981-4.043-1.947-5.445-2.927c-0.433-1.402-0.682-3.733-0.732-6.983c-0.048-3.249,0.025-7.006,0.249-11.291
			c0.211-4.271,0.584-8.909,1.129-13.889c0.546-4.979,1.142-9.914,1.786-14.788l0.335-2.927c0.421-3.571-0.272-6.523-2.121-8.847
			c-1.836-2.332-4.055-4.473-6.659-6.418c-2.593-1.954-5.246-3.846-7.963-5.692c-2.702-1.835-4.699-4.055-6.002-6.659
			c-0.544-1.947-0.595-4.166-0.16-6.66c0.433-2.492,1.005-4.979,1.698-7.47c0.707-2.488,1.353-4.874,1.947-7.15
			c0.595-2.275,0.732-4.223,0.409-5.847c1.737,0.433,3.796,1.159,6.176,2.188c2.382,1.035,4.737,2.121,7.068,3.249
			c2.32,1.14,4.414,2.257,6.251,3.336c1.836,1.078,3.039,1.947,3.572,2.599c-0.869,2.492-1.563,4.574-2.109,6.255
			c-0.545,1.681-0.966,3.114-1.303,4.304c-0.322,1.19-0.558,2.251-0.731,3.168c-0.16,0.924-0.236,1.818-0.236,2.68
			c0.101,1.519,0.783,2.871,2.023,4.061c1.251,1.19,2.764,2.356,4.551,3.496c1.785,1.137,3.707,2.245,5.767,3.331
			c2.057,1.085,3.931,2.275,5.604,3.571c1.688,1.302,3.063,2.711,4.144,4.223c1.078,1.519,1.513,3.25,1.302,5.202L544.491,426.453z"
			/>
	</g>
</g>
</svg>
