<?xml version="1.0" encoding="utf-8"?>
<!-- Generator: Adobe Illustrator 16.0.0, SVG Export Plug-In . SVG Version: 6.00 Build 0)  -->
<!DOCTYPE svg PUBLIC "-//W3C//DTD SVG 1.1//EN" "http://www.w3.org/Graphics/SVG/1.1/DTD/svg11.dtd">
<svg version="1.1" id="Layer_1" xmlns="http://www.w3.org/2000/svg" xmlns:xlink="http://www.w3.org/1999/xlink" x="0px" y="0px"
	 width="793.701px" height="793.701px" viewBox="0 0 793.701 793.701" enable-background="new 0 0 793.701 793.701"
	 xml:space="preserve">
<circle fill="#DEBB4D" cx="397.202" cy="395.552" r="391.677"/>
<circle cx="397.202" cy="395.552" r="379.677"/>
<path fill="#DEBB4D" d="M34.398,399.553C34.398,199.18,196.83,36.74,397.2,36.74c200.375,0,362.813,162.44,362.813,362.813
	c0,200.374-162.438,362.813-362.813,362.813C196.83,762.367,34.398,599.927,34.398,399.553z"/>
<path d="M49.398,399.553C49.398,207.464,205.114,51.74,397.2,51.74c192.091,0,347.813,155.724,347.813,347.813
	c0,192.09-155.723,347.813-347.813,347.813C205.114,747.367,49.398,591.643,49.398,399.553z"/>
<path fill="#DEBB4D" d="M607.713,231.716c-16.742,0-30.338,13.6-30.338,30.34c0,6.538,2.141,12.602,5.705,17.591l-57.358,36.39
	l-15.081-32.648c-2.078-4.642-7.541-6.598-12.063-4.458l-37.993,17.455c-1.373,0.582-2.379,1.605-3.257,2.667l-39.19-58.957
	c11.279-4.454,19.298-15.389,19.298-28.202c0-16.752-13.611-30.344-30.354-30.344c-16.731,0-30.336,13.592-30.336,30.344
	c0,12.813,8.021,23.749,19.307,28.202l-39.197,58.957c-0.84-1.063-1.894-2.085-3.268-2.667L315.65,278.93
	c-4.577-2.084-9.985-0.184-12.118,4.458l-15.378,33.302l-57.132-37.044c3.635-4.989,5.768-11.053,5.768-17.635
	c0-16.695-13.588-30.359-30.34-30.359c-16.735,0-30.347,13.664-30.347,30.359c0,16.735,13.612,30.343,30.347,30.343
	c3.205,0,6.167-0.598,9.091-1.552l74.036,117.558c1.725,2.673,4.642,4.293,7.724,4.293h219.572c3.146,0,6.056-1.62,7.715-4.293
	l74.1-117.558c2.909,0.954,5.881,1.552,9.092,1.552c16.743,0,30.34-13.608,30.34-30.343
	C638.118,245.316,624.475,231.716,607.713,231.716L607.713,231.716z M468.429,308.1l34.718-15.964l14.38,31.11l-28.821,18.329
	l-21.953-33.052C467.312,308.383,467.871,308.383,468.429,308.1L468.429,308.1z M407.08,192.118c10.978,0,19.78,8.912,19.78,19.776
	c0,10.948-8.803,19.775-19.78,19.775c-10.845,0-19.775-8.828-19.775-19.775C387.305,201.029,396.235,192.118,407.08,192.118
	L407.08,192.118z M311.823,293.074l33.951,15.613c0.478,0.284,1.078,0.284,1.645,0.419l-22.295,33.403l-27.84-18.069
	L311.823,293.074z M186.67,262.051c0-10.948,8.835-19.767,19.779-19.767c10.872,0,19.772,8.819,19.772,19.767
	c0,10.877-8.9,19.788-19.772,19.788C195.505,281.838,186.67,272.928,186.67,262.051L186.67,262.051z M520.77,397.6H293.371
	l-54.145-90.818l79.411,54.464c4.562,3.064,10.625,1.785,13.596-3.047l74.813-118.806l74.02,117.632
	c3.021,4.708,9.013,6.075,13.534,2.991l80.809-54.104L520.77,397.6z M607.713,281.838c-10.846,0-19.763-8.798-19.763-19.788
	c0-10.851,8.917-19.767,19.763-19.767c10.961,0,19.78,8.916,19.78,19.767C627.493,272.928,618.674,281.838,607.713,281.838
	L607.713,281.838z M526.729,441.268"/>
<g>
	<g>
		<path fill="#DEBB4D" d="M130.953,545.477c3.626-1.262,7.461-2.476,11.511-3.658c4.05-1.189,8.229-2.342,12.558-3.459
			c-2.517-0.839-4.85-1.781-7.014-2.827c-2.165-1.048-4.019-2.126-5.544-3.243c0.552-7.949,1.214-18.103,1.99-30.452
			c0.759-12.349,1.773-26.099,3.027-41.234c1.254-15.14,2.788-31.187,4.602-48.138c1.813-16.956,4.049-34.011,6.702-51.173
			c1.813-0.975,4.497-2.125,8.052-3.456c3.563-1.327,7.333-2.58,11.311-3.767c3.979-1.186,7.852-2.196,11.615-3.035
			c3.771-0.839,6.766-1.327,9.003-1.466c-3.635,16.323-6.91,32.792-9.834,49.395c-2.932,16.607-5.552,32.823-7.852,48.657
			c-2.301,15.841-4.226,31.121-5.768,45.837c-1.525,14.73-2.708,28.366-3.555,40.925c10.601-2.374,21.041-4.468,31.298-6.279
			c10.249-1.814,19.219-3.285,26.89-4.396c0.982,1.535,1.956,3.659,2.931,6.385c0.974,2.715,1.885,5.687,2.724,8.898
			c0.839,3.211,1.535,6.414,2.093,9.617c0.56,3.212,0.831,6.152,0.831,8.794c-7.253-0.55-15.313-1.044-24.172-1.461
			c-8.859-0.415-17.965-0.631-27.312-0.631c-9.355,0-18.621,0.28-27.838,0.838c-9.203,0.561-17.782,1.464-25.748,2.717
			L130.953,545.477z"/>
	</g>
	<g>
		<path fill="#DEBB4D" d="M315.962,541.498c-0.976,2.509-2.819,4.891-5.545,7.111c-2.715,2.236-5.679,4.12-8.898,5.656
			c-3.203,1.533-6.375,2.715-9.514,3.562c-3.14,0.831-5.551,1.247-7.221,1.247c-5.169-0.137-10.155-1.183-14.97-3.132
			c-4.81-1.948-9.035-4.681-12.662-8.165c-3.619-3.481-6.519-7.667-8.684-12.556c-2.164-4.89-3.098-10.402-2.827-16.537
			c0.838-6.55,2.133-13.396,3.866-20.513c1.757-7.117,3.563-13.707,5.457-19.78c1.876-6.069,3.722-11.295,5.544-15.696
			c1.813-4.402,3.203-7.222,4.185-8.476c4.043-1.678,8.093-2.539,12.135-2.621c4.05-0.063,7.606,0.176,10.672,0.736
			c2.102-1.12,4.881-1.678,8.372-1.678c3.492,0,6.942,0.318,10.36,0.941c3.427,0.632,6.456,1.438,9.107,2.414
			c2.651,0.973,4.114,1.876,4.394,2.716c0.414,0.704,0.838,2.797,1.262,6.279c0.416,3.491,0.799,7.222,1.143,11.198
			c0.351,3.979,0.63,7.679,0.846,11.088c0.2,3.426,0.24,5.417,0.096,5.975c6.143-3.073,11.959-7.331,17.479-12.772
			c5.502-5.44,9.728-11.368,12.66-17.788l5.657,5.23c-1.254,3.347-3.419,6.84-6.487,10.473c-3.075,3.626-6.391,7.038-9.946,10.249
			c-3.563,3.212-7.118,6.031-10.672,8.476c-3.555,2.445-6.526,4.082-8.899,4.921c-0.56,8.517-1.358,16.184-2.412,23.022
			C319.42,529.916,317.918,536.05,315.962,541.498z M295.663,503.62c-4.473-1.12-8.052-3.388-10.776-6.807
			c-2.724-3.42-4.497-7.573-5.336-12.461c-1.678,5.304-3.347,10.958-5.025,16.966c-1.678,6-2.972,11.72-3.866,17.16
			c-0.918,5.439-1.229,10.256-0.951,14.441c0.28,4.187,1.605,7.11,3.979,8.787c1.254,0.702,2.789,0.977,4.602,0.839
			c1.813-0.137,3.626-0.766,5.448-1.886c1.805-1.111,3.483-2.788,5.016-5.025c1.542-2.228,2.725-5.015,3.563-8.37
			c0.695-3.068,1.357-6.59,1.981-10.569C294.936,512.718,295.384,508.364,295.663,503.62z M287.084,476.195
			c0,1.535,0.168,3.14,0.526,4.817c0.336,1.671,0.872,3.34,1.566,5.018c0.695,1.677,1.638,3.21,2.828,4.609
			c1.175,1.396,2.54,2.436,4.083,3.138c0-2.509-0.112-5.407-0.32-8.691c-0.208-3.274-0.456-6.311-0.735-9.099
			c-0.695-4.322-1.461-7.293-2.301-8.891c-0.83-1.613-1.678-2.236-2.507-1.885c-0.838,0.343-1.574,1.533-2.197,3.554
			C287.396,470.786,287.084,473.262,287.084,476.195z"/>
	</g>
	<g>
		<path fill="#DEBB4D" d="M412.448,556.98c-2.094,0-4.603-0.48-7.523-1.453c-2.941-0.977-5.801-2.236-8.594-3.771
			c-2.796-1.532-5.192-3.181-7.22-4.921c-2.021-1.741-3.18-3.45-3.453-5.129c-0.143-0.975-0.175-2.58-0.103-4.808
			c0.063-2.238,0.136-4.508,0.208-6.806c0.072-2.303,0.168-4.427,0.312-6.385c0.144-1.956,0.28-3.282,0.416-3.977
			c-1.391,4.186-2.925,8.474-4.594,12.869c-1.677,4.393-3.522,8.404-5.552,12.038c-2.021,3.634-4.217,6.59-6.59,8.89
			c-2.38,2.302-4.936,3.451-7.716,3.451c-1.654,0-3.667-0.447-6.024-1.358c-2.348-0.901-4.705-1.981-7.062-3.242
			c-2.349-1.255-4.385-2.571-6.119-3.978c-1.726-1.391-2.796-2.653-3.212-3.763c-0.287-5.024-0.287-10.6-0.007-16.744
			c0.279-6.143,0.727-12.349,1.35-18.628c0.631-6.279,1.351-12.485,2.18-18.628c0.831-6.145,1.663-11.792,2.501-16.961
			c0.83-5.159,1.582-9.584,2.269-13.292c0.694-3.691,1.254-6.302,1.661-7.845c1.662-0.974,3.747-1.742,6.239-2.3
			c2.484-0.56,5.048-0.976,7.693-1.254c2.628-0.279,5.272-0.423,7.924-0.423c2.645,0,4.953,0.079,6.902,0.214
			c-1.67,7.814-3.244,15.938-4.706,24.381c-1.47,8.442-2.764,16.464-3.874,24.069c-1.119,7.613-1.99,14.409-2.62,20.409
			c-0.623,5.998-0.936,10.537-0.936,13.604c0,5.017,0.552,7.677,1.67,7.956c1.11,0.278,2.477-1.149,4.082-4.299
			c1.606-3.13,3.452-7.699,5.553-13.707c2.085-5.99,4.146-12.732,6.167-20.194c2.021-7.461,3.875-15.417,5.544-23.861
			c1.677-8.443,3.067-16.702,4.187-24.803c2.1-0.976,4.508-1.774,7.226-2.413c2.716-0.623,5.449-1.038,8.164-1.244
			c2.718-0.217,5.399-0.29,8.053-0.217c2.651,0.071,4.952,0.184,6.916,0.318c-1.262,5.855-2.443,11.958-3.562,18.317
			c-1.12,6.343-2.173,12.55-3.147,18.62c-0.973,6.065-1.805,11.864-2.509,17.376c-0.702,5.513-1.247,10.433-1.66,14.763
			c-0.72,5.159-1.022,9.584-0.961,13.282c0.079,3.701,0.528,6.207,1.374,7.533c0.832,1.326,2.096,1.359,3.756,0.112
			c1.677-1.262,3.771-4.186,6.294-8.802c0.96-1.806,2.255-4.49,3.867-8.055c1.599-3.561,3.308-7.491,5.13-11.821
			c1.804-4.33,3.69-8.932,5.639-13.819c1.949-4.88,3.771-9.626,5.448-14.235c1.677-4.602,3.162-8.891,4.504-12.87
			c1.327-3.969,2.332-7.292,3.021-9.937l6.295,1.67c-1.262,4.33-2.91,9.698-4.921,16.119c-2.03,6.416-4.298,13.183-6.807,20.309
			c-2.509,7.107-5.162,14.234-7.956,21.343c-2.798,7.109-5.607,13.501-8.467,19.148c-2.878,5.646-5.736,10.266-8.596,13.812
			C417.642,555.207,414.956,556.98,412.448,556.98z"/>
	</g>
	<g>
		<path fill="#DEBB4D" d="M438.619,532.713c1.118-11.17,2.363-22.608,3.753-34.336c1.406-11.718,2.845-23.197,4.298-34.428
			c1.472-11.231,2.892-21.873,4.283-31.923c1.39-10.04,2.651-18.899,3.769-26.576c1.12-7.672,2.063-13.843,2.829-18.521
			c0.767-4.672,1.294-7.289,1.565-7.847c6.149-2.793,12.349-4.57,18.628-5.342c6.279-0.762,11.231-0.865,14.875-0.311
			c-0.99,4.605-2.285,10.676-3.882,18.205c-1.598,7.537-3.34,16.05-5.225,25.534c-1.901,9.489-3.802,19.715-5.769,30.658
			c-1.949,10.961-3.756,22.09-5.433,33.391c2.078,0.697,4.46,2.063,7.109,4.075c2.653,2.03,4.458,3.596,5.435,4.713
			c6.853-3.347,13.643-7.356,20.416-12.03c6.761-4.674,12.32-9.457,16.633-14.338l4.809,5.646
			c-5.289,5.585-11.04,10.921-17.255,16.009c-6.214,5.097-12.941,9.458-20.193,13.084c1.677,4.061,2.954,9.106,3.865,15.18
			c0.911,6.07,1.503,12.66,1.789,19.778c0.271,7.117,0.209,14.514-0.224,22.191c-0.416,7.667-1.183,15.129-2.301,22.384
			c-1.119,7.252-2.508,14.026-4.186,20.305c-1.677,6.279-3.626,11.647-5.862,16.12c-0.977,1.112-2.86,1.98-5.641,2.621
			c-2.797,0.624-5.896,0.759-9.315,0.415c-3.419-0.351-6.9-1.262-10.465-2.723c-3.561-1.463-6.598-3.74-9.106-6.799
			c-2.794-3.211-4.919-7.646-6.39-13.292c-1.455-5.658-2.427-11.936-2.923-18.838c-0.494-6.908-0.704-14.099-0.624-21.56
			C437.947,546.7,438.186,539.548,438.619,532.713z M476.067,504.242c-2.237,0.976-4.746,1.678-7.526,2.094
			c-1.262,8.657-2.491,17.127-3.659,25.435c-1.196,8.3-2.267,16.111-3.242,23.437c-0.974,7.326-1.852,14.061-2.62,20.195
			c-0.767,6.142-1.356,11.518-1.771,16.119c-0.289,2.509-0.226,4.425,0.191,5.752c0.43,1.326,1.022,1.781,1.789,1.366
			c0.766-0.424,1.709-1.75,2.827-3.987c1.117-2.221,2.302-5.574,3.546-10.039c1.822-6.417,3.42-12.901,4.826-19.468
			c1.391-6.56,2.541-12.861,3.451-18.934c0.911-6.07,1.598-11.759,2.091-17.063c0.481-5.304,0.802-9.977,0.942-14.026
			c0-1.949-0.079-3.868-0.206-5.751C476.563,507.484,476.355,505.775,476.067,504.242z"/>
	</g>
	<g>
		<path fill="#DEBB4D" d="M627.396,463.845c-0.973,2.931-2.38,7.294-4.184,13.075c-1.822,5.802-3.979,12.143-6.488,19.047
			c-2.523,6.916-5.209,13.994-8.068,21.249c-2.859,7.259-5.783,13.849-8.788,19.777c-3.001,5.936-5.893,10.783-8.689,14.554
			c-2.781,3.764-5.369,5.64-7.732,5.64c-2.238,0-5.033-0.446-8.373-1.356c-3.354-0.903-6.565-2.093-9.634-3.547
			c-3.066-1.471-5.687-3.147-7.845-5.031c-2.173-1.888-3.243-3.725-3.243-5.546c-0.144-1.532-0.144-3.418,0-5.656
			c0.145-2.22,0.336-4.664,0.623-7.316c-1.244,3.347-2.604,6.662-4.074,9.937c-1.468,3.282-2.972,6.247-4.505,8.9
			c-1.532,2.653-3.098,4.848-4.713,6.59c-1.599,1.749-3.163,2.755-4.697,3.026c-1.405,0.289-3.466,0.145-6.181-0.413
			c-2.719-0.56-5.546-1.392-8.47-2.509c-2.939-1.12-5.625-2.444-8.068-3.979c-2.443-1.532-4.074-3.138-4.921-4.809
			c-0.973-1.949-1.532-5.241-1.662-9.843c-0.142-4.6,0.033-9.864,0.513-15.798c0.495-5.929,1.197-12.175,2.093-18.726
			c0.911-6.567,1.934-12.847,3.036-18.852c1.117-5.993,2.268-11.329,3.468-16.01c1.165-4.664,2.331-8.051,3.435-10.145
			c0.56-1.12,1.934-2.204,4.089-3.242c2.157-1.056,4.713-1.919,7.637-2.621c2.925-0.694,6.006-1.149,9.202-1.358
			c3.212-0.206,6.15-0.104,8.804,0.311c1.661,0.282,3.691,1.255,6.071,2.932c2.363,1.679,4.807,4.33,7.315,7.956
			c0.29-1.677,0.593-3.242,0.944-4.713c0.351-1.468,0.671-2.476,0.943-3.034c1.262-0.693,3.098-1.286,5.542-1.774
			c2.447-0.495,5.097-0.911,7.956-1.262c2.86-0.351,5.722-0.52,8.582-0.52c2.858,0,5.271,0.209,7.219,0.632
			c-1.262,5.989-2.539,12.693-3.864,20.082c-1.342,7.399-2.588,14.827-3.771,22.289c-1.181,7.476-2.236,14.488-3.13,21.039
			c-0.929,6.567-1.583,11.998-1.999,16.328c-0.415,3.626-0.415,6.214,0,7.75c0.416,1.532,1.009,2.397,1.775,2.611
			c0.766,0.208,1.612,0,2.523-0.631c0.894-0.624,1.692-1.358,2.396-2.196c1.679-2.086,3.562-5.162,5.655-9.211
			c2.093-4.043,4.25-8.547,6.488-13.5c2.234-4.944,4.456-10.114,6.694-15.481c2.234-5.376,4.296-10.465,6.182-15.291
			c1.869-4.809,3.482-9.065,4.809-12.765c1.326-3.69,2.27-6.453,2.827-8.26L627.396,463.845z M560.216,480.38
			c0.127-2.65-0.112-5.231-0.734-7.74c-0.624-2.516-1.503-4.714-2.621-6.598c-1.117-1.886-2.301-3.308-3.563-4.29
			c-1.244-0.974-2.3-1.254-3.131-0.839c-1.405,0.704-2.86,3.282-4.393,7.75c-1.55,4.465-3.004,9.801-4.395,16.007
			c-1.406,6.214-2.618,12.732-3.658,19.571c-1.056,6.84-1.758,13.054-2.109,18.628c-0.336,5.585-0.27,10.018,0.225,13.292
			c0.478,3.275,1.566,4.428,3.243,3.453c0.976-0.561,2.396-2.445,4.28-5.646c1.887-3.214,3.867-7.439,5.961-12.663
			c2.107-5.242,4.12-11.344,6.087-18.317C557.356,496.014,558.954,488.474,560.216,480.38z"/>
	</g>
	<g>
		<path fill="#DEBB4D" d="M660.453,510.728c-1.102,10.888-1.598,21.105-1.455,30.668c0.145,9.562,1.392,17.055,3.771,22.503
			c-2.234,0.271-4.855,0.206-7.859-0.217c-2.987-0.423-6.041-1.077-9.092-1.987c-3.083-0.911-6.037-1.982-8.897-3.244
			c-2.862-1.264-5.208-2.509-7.015-3.771c-0.558-1.807-0.879-4.81-0.944-8.997c-0.062-4.186,0.033-9.025,0.321-14.546
			c0.271-5.502,0.752-11.479,1.454-17.894c0.703-6.414,1.471-12.772,2.301-19.052l0.432-3.771c0.543-4.601-0.351-8.404-2.732-11.397
			c-2.365-3.004-5.224-5.762-8.579-8.269c-3.34-2.518-6.759-4.954-10.259-7.333c-3.481-2.364-6.054-5.224-7.732-8.579
			c-0.701-2.509-0.767-5.367-0.206-8.581c0.557-3.21,1.294-6.414,2.188-9.623c0.911-3.206,1.742-6.279,2.509-9.212
			c0.767-2.932,0.943-5.44,0.527-7.532c2.238,0.557,4.891,1.493,7.956,2.819c3.068,1.333,6.104,2.732,9.106,4.186
			c2.989,1.469,5.687,2.907,8.054,4.298c2.365,1.389,3.915,2.509,4.602,3.348c-1.119,3.211-2.013,5.894-2.717,8.059
			c-0.702,2.165-1.245,4.012-1.679,5.544c-0.415,1.534-0.719,2.9-0.942,4.082c-0.206,1.19-0.305,2.343-0.305,3.452
			c0.13,1.956,1.009,3.699,2.607,5.231c1.611,1.533,3.561,3.036,5.862,4.504c2.3,1.465,4.776,2.893,7.43,4.291
			c2.649,1.398,5.063,2.932,7.219,4.602c2.176,1.677,3.947,3.492,5.339,5.44c1.389,1.956,1.948,4.187,1.677,6.701L660.453,510.728z"
			/>
	</g>
</g>
</svg>
